name ./resultDataOpenSim/trcMotMarkerGrf/sub10/grf-04-03.mot
datacolumns 19
datarows 30
range 0.50800000 0.62400000
endheader

                time	     ground_force_vx	     ground_force_vy	     ground_force_vz	     ground_force_px	     ground_force_py	     ground_force_pz	   l_ground_force_vx	   l_ground_force_vy	   l_ground_force_vz	   l_ground_force_px	   l_ground_force_py	   l_ground_force_pz	     ground_torque_x	     ground_torque_y	     ground_torque_z	   l_ground_torque_x	   l_ground_torque_y	   l_ground_torque_z	
          0.50800000	         21.60643006	        445.71097157	        -13.78869637	         -0.81073218	          0.00000000	         -0.04533525	          0.00000000	          0.00000000	          0.00000000	          0.00000000	          0.00000000	          0.00000000	          0.00000000	          1.60212878	          0.00000000	          0.00000000	          0.00000000	          0.00000000	
          0.51200000	         22.76112756	        444.70450061	        -14.37161745	         -0.80971691	          0.00000000	         -0.04514892	          0.00000000	          0.00000000	          0.00000000	          0.00000000	          0.00000000	          0.00000000	          0.00000000	          1.64488056	          0.00000000	          0.00000000	          0.00000000	          0.00000000	
          0.51600000	         24.21049447	        444.04343689	        -14.56808947	         -0.80867176	          0.00000000	         -0.04498381	          0.00000000	          0.00000000	          0.00000000	          0.00000000	          0.00000000	          0.00000000	          0.00000000	          1.71898321	          0.00000000	          0.00000000	          0.00000000	          0.00000000	
          0.52000000	         25.95716162	        443.69720450	        -14.34619696	         -0.80761481	          0.00000000	         -0.04484670	          0.00000000	          0.00000000	          0.00000000	          0.00000000	          0.00000000	          0.00000000	          0.00000000	          1.82431338	          0.00000000	          0.00000000	          0.00000000	          0.00000000	
          0.52400000	         27.96123611	        443.64260773	        -13.77313060	         -0.80659046	          0.00000000	         -0.04472466	          0.00000000	          0.00000000	          0.00000000	          0.00000000	          0.00000000	          0.00000000	          0.00000000	          1.95344255	          0.00000000	          0.00000000	          0.00000000	          0.00000000	
          0.52800000	         30.15899533	        443.87462637	        -13.00318073	         -0.80565495	          0.00000000	         -0.04459070	          0.00000000	          0.00000000	          0.00000000	          0.00000000	          0.00000000	          0.00000000	          0.00000000	          2.09458177	          0.00000000	          0.00000000	          0.00000000	          0.00000000	
          0.53200000	         32.47963831	        444.42813027	        -12.23770164	         -0.80482852	          0.00000000	         -0.04443054	          0.00000000	          0.00000000	          0.00000000	          0.00000000	          0.00000000	          0.00000000	          0.00000000	          2.23490351	          0.00000000	          0.00000000	          0.00000000	          0.00000000	
          0.53600000	         34.86202860	        445.38316894	        -11.67254021	         -0.80406265	          0.00000000	         -0.04425844	          0.00000000	          0.00000000	          0.00000000	          0.00000000	          0.00000000	          0.00000000	          0.00000000	          2.36321936	          0.00000000	          0.00000000	          0.00000000	          0.00000000	
          0.54000000	         37.27199441	        446.82598314	        -11.45464074	         -0.80327927	          0.00000000	         -0.04409574	          0.00000000	          0.00000000	          0.00000000	          0.00000000	          0.00000000	          0.00000000	          0.00000000	          2.47175675	          0.00000000	          0.00000000	          0.00000000	          0.00000000	
          0.54400000	         39.70841822	        448.79070609	        -11.65449076	         -0.80243373	          0.00000000	         -0.04394256	          0.00000000	          0.00000000	          0.00000000	          0.00000000	          0.00000000	          0.00000000	          0.00000000	          2.55726246	          0.00000000	          0.00000000	          0.00000000	          0.00000000	
          0.54800000	         42.18566866	        451.23775757	        -12.25571463	         -0.80151779	          0.00000000	         -0.04377865	          0.00000000	          0.00000000	          0.00000000	          0.00000000	          0.00000000	          0.00000000	          0.00000000	          2.62156818	          0.00000000	          0.00000000	          0.00000000	          0.00000000	
          0.55200000	         44.70023021	        454.08767618	        -13.16472001	         -0.80051748	          0.00000000	         -0.04358554	          0.00000000	          0.00000000	          0.00000000	          0.00000000	          0.00000000	          0.00000000	          0.00000000	          2.67138989	          0.00000000	          0.00000000	          0.00000000	          0.00000000	
          0.55600000	         47.20774857	        457.27255977	        -14.23564135	         -0.79939274	          0.00000000	         -0.04336451	          0.00000000	          0.00000000	          0.00000000	          0.00000000	          0.00000000	          0.00000000	          0.00000000	          2.71701633	          0.00000000	          0.00000000	          0.00000000	          0.00000000	
          0.56000000	         49.62912362	        460.76023009	        -15.30443490	         -0.79810608	          0.00000000	         -0.04312636	          0.00000000	          0.00000000	          0.00000000	          0.00000000	          0.00000000	          0.00000000	          0.00000000	          2.76988131	          0.00000000	          0.00000000	          0.00000000	          0.00000000	
          0.56400000	         51.87431522	        464.54485185	        -16.22839732	         -0.79665294	          0.00000000	         -0.04287040	          0.00000000	          0.00000000	          0.00000000	          0.00000000	          0.00000000	          0.00000000	          0.00000000	          2.83958108	          0.00000000	          0.00000000	          0.00000000	          0.00000000	
          0.56800000	         53.85725475	        468.63059096	        -16.91900113	         -0.79504290	          0.00000000	         -0.04258854	          0.00000000	          0.00000000	          0.00000000	          0.00000000	          0.00000000	          0.00000000	          0.00000000	          2.93126651	          0.00000000	          0.00000000	          0.00000000	          0.00000000	
          0.57200000	         55.49974534	        473.03116254	        -17.35748142	         -0.79326416	          0.00000000	         -0.04228144	          0.00000000	          0.00000000	          0.00000000	          0.00000000	          0.00000000	          0.00000000	          0.00000000	          3.04424730	          0.00000000	          0.00000000	          0.00000000	          0.00000000	
          0.57600000	         56.74688021	        477.77738531	        -17.59880879	         -0.79129138	          0.00000000	         -0.04195783	          0.00000000	          0.00000000	          0.00000000	          0.00000000	          0.00000000	          0.00000000	          0.00000000	          3.17215466	          0.00000000	          0.00000000	          0.00000000	          0.00000000	
          0.58000000	         57.59543144	        482.90962982	        -17.76613211	         -0.78911943	          0.00000000	         -0.04162505	          0.00000000	          0.00000000	          0.00000000	          0.00000000	          0.00000000	          0.00000000	          0.00000000	          3.30441902	          0.00000000	          0.00000000	          0.00000000	          0.00000000	
          0.58400000	         58.10444855	        488.45881626	        -18.02384639	         -0.78677088	          0.00000000	         -0.04128479	          0.00000000	          0.00000000	          0.00000000	          0.00000000	          0.00000000	          0.00000000	          0.00000000	          3.42846738	          0.00000000	          0.00000000	          0.00000000	          0.00000000	
          0.58800000	         58.37498630	        494.44342100	        -18.53116052	         -0.78427506	          0.00000000	         -0.04093866	          0.00000000	          0.00000000	          0.00000000	          0.00000000	          0.00000000	          0.00000000	          0.00000000	          3.53209296	          0.00000000	          0.00000000	          0.00000000	          0.00000000	
          0.59200000	         58.52619330	        500.88266187	        -19.39742078	         -0.78165332	          0.00000000	         -0.04059147	          0.00000000	          0.00000000	          0.00000000	          0.00000000	          0.00000000	          0.00000000	          0.00000000	          3.60572637	          0.00000000	          0.00000000	          0.00000000	          0.00000000	
          0.59600000	         58.68485276	        507.80112067	        -20.65418007	         -0.77892449	          0.00000000	         -0.04025679	          0.00000000	          0.00000000	          0.00000000	          0.00000000	          0.00000000	          0.00000000	          0.00000000	          3.64447705	          0.00000000	          0.00000000	          0.00000000	          0.00000000	
          0.60000000	         58.96933875	        515.22212603	        -22.24638493	         -0.77612641	          0.00000000	         -0.03994844	          0.00000000	          0.00000000	          0.00000000	          0.00000000	          0.00000000	          0.00000000	          0.00000000	          3.64966010	          0.00000000	          0.00000000	          0.00000000	          0.00000000	
          0.60400000	         59.46063937	        523.16302126	        -24.04011723	         -0.77330800	          0.00000000	         -0.03967646	          0.00000000	          0.00000000	          0.00000000	          0.00000000	          0.00000000	          0.00000000	          0.00000000	          3.62929061	          0.00000000	          0.00000000	          0.00000000	          0.00000000	
          0.60800000	         60.18692317	        531.63357540	        -25.84281941	         -0.77049448	          0.00000000	         -0.03944848	          0.00000000	          0.00000000	          0.00000000	          0.00000000	          0.00000000	          0.00000000	          0.00000000	          3.59704831	          0.00000000	          0.00000000	          0.00000000	          0.00000000	
          0.61200000	         61.13816582	        540.63224442	        -27.43542713	         -0.76769490	          0.00000000	         -0.03927792	          0.00000000	          0.00000000	          0.00000000	          0.00000000	          0.00000000	          0.00000000	          0.00000000	          3.56964571	          0.00000000	          0.00000000	          0.00000000	          0.00000000	
          0.61600000	         62.29321541	        550.14057085	        -28.61401253	         -0.76492565	          0.00000000	         -0.03917391	          0.00000000	          0.00000000	          0.00000000	          0.00000000	          0.00000000	          0.00000000	          0.00000000	          3.56317581	          0.00000000	          0.00000000	          0.00000000	          0.00000000	
          0.62000000	         63.63992602	        560.12179969	        -29.22976380	         -0.76220969	          0.00000000	         -0.03913669	          0.00000000	          0.00000000	          0.00000000	          0.00000000	          0.00000000	          0.00000000	          0.00000000	          3.58943821	          0.00000000	          0.00000000	          0.00000000	          0.00000000	
          0.62400000	         65.18865374	        570.52966349	        -29.21781214	         -0.75957225	          0.00000000	         -0.03916181	          0.00000000	          0.00000000	          0.00000000	          0.00000000	          0.00000000	          0.00000000	          0.00000000	          3.65318308	          0.00000000	          0.00000000	          0.00000000	          0.00000000	
